<svg id="Layer_1" data-name="Layer 1" xmlns="http://www.w3.org/2000/svg" viewBox="0 0 907.08 787.83"><defs><style>.cls-1{fill:#012169;}.cls-2{fill:#fff;}</style></defs><path class="cls-1" d="M1679.55,480.9a199.8,199.8,0,0,0-5.38-19.73,204.39,204.39,0,0,0-18-41,163.75,163.75,0,0,0-24.29-31,152.48,152.48,0,0,0-28.33-22.94,144.76,144.76,0,0,0-58-20.25q-384.69-2.18-769.4-4.32l110.37,175.7.83,436.41L776.1,1129.45l774.78-3.49a188.08,188.08,0,0,0,48.73-14.06c9.85-4.38,23.91-10.75,39-23.73,8.33-7.21,16.35-14.12,22.94-25.65,13.9-24.35,13.48-55.33,13.48-55.33s1.73-32.89,3.58-82.2,3.85-115.13,4.41-180.93C1684.15,612.52,1679.55,480.94,1679.55,480.9ZM1452,574.71a95.42,95.42,0,0,1-84,56.86,889.9,889.9,0,0,0-121.52,281.1,95.49,95.49,0,1,1-80.52-35.52,1004.13,1004.13,0,0,0,125.74-279.48,95.48,95.48,0,0,1,70.91-157l-35.33,80a14.94,14.94,0,0,0,7.63,19.71L1381.57,561a14.94,14.94,0,0,0,19.71-7.63l35.31-80A95.4,95.4,0,0,1,1452,574.71Z" transform="translate(-776.1 -341.62)"/><path class="cls-1" d="M1452,574.71a95.42,95.42,0,0,1-84,56.86,889.9,889.9,0,0,0-121.52,281.1,95.49,95.49,0,1,1-80.52-35.52,1004.13,1004.13,0,0,0,125.74-279.48,95.48,95.48,0,0,1,70.91-157l-35.33,80a14.94,14.94,0,0,0,7.63,19.71L1381.57,561a14.94,14.94,0,0,0,19.71-7.63l35.31-80A95.4,95.4,0,0,1,1452,574.71Z" transform="translate(-776.1 -341.62)"/><path class="cls-2" d="M1436.59,473.38l-35.31,80a14.94,14.94,0,0,1-19.71,7.63l-46.73-20.63a14.94,14.94,0,0,1-7.63-19.71l35.33-80a95.48,95.48,0,0,0-70.91,157,1004.13,1004.13,0,0,1-125.74,279.48,95.48,95.48,0,1,0,80.52,35.52,889.9,889.9,0,0,1,121.52-281.1,95.48,95.48,0,0,0,68.66-158.19ZM1215.75,999.7,1182,1024.35a10.76,10.76,0,0,1-10.72,1.16l-38.19-16.87a10.72,10.72,0,0,1-6.35-8.72l-4.5-41.51a10.75,10.75,0,0,1,4.36-9.84l33.71-24.65a10.76,10.76,0,0,1,10.72-1.16l38.19,16.85a10.84,10.84,0,0,1,6.35,8.72l4.48,41.52A10.72,10.72,0,0,1,1215.75,999.7Z" transform="translate(-776.1 -341.62)"/></svg>